<svg id="图层_1" data-name="图层 1" xmlns="http://www.w3.org/2000/svg" viewBox="0 0 40 40"><defs><style>.cls-1{fill:#eff2f4;}.cls-2{fill:#e5af42;}</style></defs><title>未标题-2</title><g id="Group_5485" data-name="Group 5485"><g id="Group_551" data-name="Group 551"><circle id="Ellipse_2" data-name="Ellipse 2" class="cls-1" cx="20" cy="20" r="20"/></g></g><polygon class="cls-2" points="19.67 5.98 11.36 14.44 14.39 17.42 19.67 12.24 25.04 17.42 28.17 14.48 19.67 5.98"/><polygon class="cls-2" points="19.76 16.64 16.68 19.96 19.76 22.94 22.8 19.79 19.76 16.64"/><polygon class="cls-2" points="30.52 16.64 33.55 19.79 30.52 22.94 27.39 19.79 30.52 16.64"/><polygon class="cls-2" points="25.09 22.11 28.17 25.09 19.76 33.65 11.36 25.14 14.44 22.11 19.95 27.49 25.09 22.11"/><polygon class="cls-2" points="9.11 16.64 12.24 19.79 9.11 22.94 6.03 19.79 9.11 16.64"/></svg>