<svg id="图层_1" data-name="图层 1" xmlns="http://www.w3.org/2000/svg" viewBox="0 0 40 40"><defs><style>.cls-1{fill:#eff2f4;}.cls-2{fill:#307abf;}</style></defs><title>未标题-2</title><g id="Group_5485" data-name="Group 5485"><g id="Group_551" data-name="Group 551"><circle id="Ellipse_2" data-name="Ellipse 2" class="cls-1" cx="20" cy="20" r="20"/></g></g><path class="cls-2" d="M22,33.39c-2.53.35-4.92-.53-7.37-.87a6.07,6.07,0,0,1-4.2-2.37,5.81,5.81,0,0,1-1.21-3.58c0-3.59,0-7.17,0-10.76a5.89,5.89,0,0,1,4.24-5.65.65.65,0,0,0,.43-.31A5.9,5.9,0,0,1,20.4,6.61h.17c.25.06.5.14.75.18,1.86.35,3.73.61,5.57,1.08h0a7.49,7.49,0,0,1,2.58,1.88h0a.88.88,0,0,0,.33.43c1.18,1.85.95,3.92.94,6a.85.85,0,0,1-.35.67l-4.21,3.48a.92.92,0,0,1-1.52-.76c0-.86,0-1.71,0-2.57a3.94,3.94,0,0,0-3.34-4c-1.79-.33-3.59-.62-5.38-1-.41-.08-.61,0-.61.46,0,3.62,0,7.25,0,10.87A3.73,3.73,0,0,0,18,26.9,55.66,55.66,0,0,0,24,28c.45.16.64,0,.63-.48,0-1.12,0-2.25,0-3.37a1.69,1.69,0,0,1,.23-.95h0a2.3,2.3,0,0,0,.6-.53.06.06,0,0,0,.07,0,8.55,8.55,0,0,0,1.26-1.06,3.25,3.25,0,0,0,.85-.7h0a1.41,1.41,0,0,0,.54-.44h0l.66-.5c.77-.61,1.36-.49,1.83.4l0,.23c-.07,1.3,0,2.61,0,3.91l0,.23a8.32,8.32,0,0,1-.62,2.21h0a1.37,1.37,0,0,0-.32.57h0a1.58,1.58,0,0,0-.43.56h0a1.09,1.09,0,0,0-.38.41l0,0-.14.14,0,0-.14.14,0,0-.14.13,0,0a10.68,10.68,0,0,1-1.72,1.06h0c-.4.08-.83.12-.92.64h0a2.33,2.33,0,0,0-.44.68h0a7.35,7.35,0,0,1-2.43,1.91h0Zm-8.74-20.9a3.7,3.7,0,0,0-2,3.25q-.07,5.41,0,10.82a3.83,3.83,0,0,0,3.15,3.81c1.93.4,3.87.74,5.81,1.06a3.61,3.61,0,0,0,3-.94c.1-.09.28-.18.23-.35s-.22-.1-.34-.12c-1.55-.29-3.1-.6-4.66-.86a6,6,0,0,1-5.24-6.1q0-4.77,0-9.54C13.28,13.22,13.28,12.91,13.28,12.49Zm3-2.55c1.76.32,3.38.64,5,.91a6.07,6.07,0,0,1,5.28,4.75,12.15,12.15,0,0,1,.15,1.51,4.79,4.79,0,0,1,.5-.37,2.9,2.9,0,0,0,1.5-3.13,4.07,4.07,0,0,0-3.32-4c-1.79-.35-3.58-.68-5.37-1A4,4,0,0,0,16.28,9.94ZM28.65,22.81l-1.82,1.51a.47.47,0,0,0-.14.4c0,.8,0,1.59,0,2.39,0,.33.09.42.37.2l.3-.25C28.62,26,28.8,24.51,28.65,22.81Z"/></svg>