<svg id="图层_1" data-name="图层 1" xmlns="http://www.w3.org/2000/svg" viewBox="0 0 40 40"><defs><style>.cls-1{fill:#eff2f4;}.cls-2{fill:#2b5aa8;}</style></defs><title>未标题-2</title><g id="Group_5485" data-name="Group 5485"><g id="Group_551" data-name="Group 551"><circle id="Ellipse_2" data-name="Ellipse 2" class="cls-1" cx="20" cy="20" r="20"/></g></g><path class="cls-2" d="M31.11,20a4.51,4.51,0,0,1-4.58,4.56,4.56,4.56,0,1,1,0-9.12A4.52,4.52,0,0,1,31.11,20Z"/><path class="cls-2" d="M12.34,28.7a3.36,3.36,0,1,1,.37-6.7,6,6,0,0,1,1.17.36c.75.25,1.49.53,2.25.77a1.48,1.48,0,0,0,1.26-.19,3.48,3.48,0,0,0,1.42-1.43,1.31,1.31,0,0,1,1.7-.65,1.32,1.32,0,0,1-.77,2.52,7.57,7.57,0,0,0-1.43-.18,2.59,2.59,0,0,0-2.18,1.57,7.13,7.13,0,0,0-.53,1.43A3.34,3.34,0,0,1,12.34,28.7Z"/><path class="cls-2" d="M12.24,11.3a3.32,3.32,0,0,1,3.23,2.32c.19.55.48,1.06.73,1.59a2.61,2.61,0,0,0,3.31,1.21,1.31,1.31,0,0,1,1.85,1.22,1.27,1.27,0,0,1-.95,1.27A1.35,1.35,0,0,1,19,18.38c-.14-.2-.26-.41-.42-.59a2.54,2.54,0,0,0-3.1-.93,10.78,10.78,0,0,0-1.49.72,3.31,3.31,0,0,1-3.45-.06,3.23,3.23,0,0,1-1.6-3A3.34,3.34,0,0,1,12.24,11.3Z"/><path class="cls-2" d="M20.64,9a2.23,2.23,0,0,1,2.2,2.21,2.14,2.14,0,0,1-2.24,2.24,2.16,2.16,0,0,1-2.18-2.3A2.23,2.23,0,0,1,20.64,9Z"/><path class="cls-2" d="M18.43,28.75a2.2,2.2,0,1,1,4.41,0,2.2,2.2,0,1,1-4.41,0Z"/></svg>