<svg id="图层_1" data-name="图层 1" xmlns="http://www.w3.org/2000/svg" viewBox="0 0 40 40"><defs><style>.cls-1{fill:#eff2f4;}.cls-2{fill:#d81b68;}</style></defs><title>未标题-2</title><g id="Group_5485" data-name="Group 5485"><g id="Group_551" data-name="Group 551"><circle id="Ellipse_2" data-name="Ellipse 2" class="cls-1" cx="20" cy="20" r="20"/></g></g><path class="cls-2" d="M36.24,23.79v.27a0,0,0,0,0,0,.06l-.16,0H34.25l-.16,0c0-2,0-3.9,0-5.85,0-.39-.15-.61-.54-.61h-5.4c-.19,0-.29.06-.23.27v6.18c-.54.09-1.08,0-1.62,0-.36,0-.49-.07-.48-.46q0-3.69,0-7.39c0-.37.09-.48.47-.48,2.34,0,4.68,0,7,0a3,3,0,0,1,2.35.87l.05.07A3.47,3.47,0,0,1,36.2,18l0,.35Q36.17,21.09,36.24,23.79Z"/><path class="cls-2" d="M24.52,16.22v7.85c-.1.12-.25.09-.38.09-2.73,0-5.46.09-8.19-.07l0,0h0a2.6,2.6,0,0,1-1.71-1.76v0l0,0c0-.07,0-.15,0-.22,0-1.95,0-3.9,0-5.84,0-.28.08-.37.35-.36.46,0,.93,0,1.39,0,.21,0,.35,0,.33.29a2.32,2.32,0,0,0,0,.36V21.9a.25.25,0,0,0,.16.28c0,.08.11.09.18.09s.29.06.43.06c1.62,0,3.24,0,4.86,0,.43,0,.56-.1.55-.54,0-1.85,0-3.69,0-5.54,0-.34.1-.44.43-.42a10.3,10.3,0,0,0,1.31,0C24.44,15.82,24.53,15.95,24.52,16.22Z"/><path class="cls-2" d="M3.94,24.17l-.16,0c0-1.86,0-3.72,0-5.58a3.37,3.37,0,0,1,.46-1.88l.08-.09a2.33,2.33,0,0,1,1.59-.74h6.67c.23,0,.32.07.31.31a8.21,8.21,0,0,0,0,1.08c0,.36-.09.45-.45.45-2.09,0-4.18,0-6.27,0-.54,0-.56.1-.6,1,0,.49.25.44.56.44,2.1,0,4.21,0,6.31,0,.36,0,.47.11.44.45a4.9,4.9,0,0,0,0,.95c0,.37-.11.44-.45.44-2.15,0-4.3,0-6.45,0-.31,0-.41.08-.41.4,0,.77,0,1.53,0,2.3,0,.42-.08.6-.53.56A9.6,9.6,0,0,0,3.94,24.17Z"/></svg>