<svg id="图层_1" data-name="图层 1" xmlns="http://www.w3.org/2000/svg" viewBox="0 0 40 40"><defs><style>.cls-1{fill:#eff2f4;}.cls-2{fill:#1a3063;}</style></defs><title>未标题-2</title><g id="Group_5485" data-name="Group 5485"><g id="Group_551" data-name="Group 551"><circle id="Ellipse_2" data-name="Ellipse 2" class="cls-1" cx="20.05" cy="20" r="20"/></g></g><path class="cls-2" d="M18.09,21.91v-2a6.1,6.1,0,0,1-4.34-8.53A6,6,0,0,1,22.54,9l2.75-2.85L26.81,7.6,24,10.15a23.27,23.27,0,0,1,.9,3,5.88,5.88,0,0,1-4.28,6.58c-.43.12-.6.26-.56.71s-.14,1,.07,1.39.78.35,1.18.52a5.91,5.91,0,1,1-3.76-.25Zm4.92-8a3.91,3.91,0,1,0-3.88,4A3.9,3.9,0,0,0,23,13.9Zm-3.91,10A4,4,0,1,0,23,27.84,3.94,3.94,0,0,0,19.1,23.9Z"/></svg>