<svg id="图层_1" data-name="图层 1" xmlns="http://www.w3.org/2000/svg" viewBox="0 0 40 40"><defs><style>.cls-1{fill:#eff2f4;}.cls-2{fill:#349cd1;}</style></defs><title>未标题-2</title><g id="Group_5485" data-name="Group 5485"><g id="Group_551" data-name="Group 551"><circle id="Ellipse_2" data-name="Ellipse 2" class="cls-1" cx="19.92" cy="20" r="20"/></g></g><path d="M19.71,6.22a14.18,14.18,0,0,1,1.07,1.24A12.24,12.24,0,0,1,23,15a6.39,6.39,0,0,1-1.4,3.41c-.91,1.3-1.89,2.55-2.82,3.84a10.1,10.1,0,0,0-2,4.33,8.5,8.5,0,0,0,1.07,5.15c.31.62.64,1.24,1,1.85l-.15.22a13.2,13.2,0,0,1-1.48-.39,9.31,9.31,0,0,1-4.72-13,13.32,13.32,0,0,1,2.31-3,14.36,14.36,0,0,0,4.81-11Z"/><path class="cls-2" d="M25.4,17s7.5,7.18,0,14.68a6.18,6.18,0,0,1-1.3.75A3,3,0,0,0,23,33.58s-5.55-3.53.45-12.31A10.46,10.46,0,0,0,25.4,17Z"/></svg>