<svg id="图层_1" data-name="图层 1" xmlns="http://www.w3.org/2000/svg" viewBox="0 0 40 40"><defs><style>.cls-1{fill:#eff2f4;}.cls-2{fill:#2a58a7;}</style></defs><title>未标题-2</title><g id="Group_5485" data-name="Group 5485"><g id="Group_551" data-name="Group 551"><circle id="Ellipse_2" data-name="Ellipse 2" class="cls-1" cx="20.05" cy="20" r="20"/></g></g><path class="cls-2" d="M14.16,8.71a5.47,5.47,0,1,0,5.47,5.47A5.47,5.47,0,0,0,14.16,8.71Zm0,9.33A3.86,3.86,0,1,1,18,14.18,3.86,3.86,0,0,1,14.16,18Z"/><path class="cls-2" d="M14.16,20.35a5.47,5.47,0,1,0,5.47,5.47A5.47,5.47,0,0,0,14.16,20.35Zm0,9.33A3.86,3.86,0,1,1,18,25.82,3.86,3.86,0,0,1,14.16,29.68Z"/><path class="cls-2" d="M25.84,8.71a5.47,5.47,0,1,0,5.47,5.47A5.47,5.47,0,0,0,25.84,8.71Zm0,9.33a3.86,3.86,0,1,1,3.86-3.86A3.86,3.86,0,0,1,25.84,18Z"/><rect class="cls-2" x="14.16" y="8.71" width="5.47" height="1.56"/></svg>