<svg id="图层_1" data-name="图层 1" xmlns="http://www.w3.org/2000/svg" viewBox="0 0 40 40"><defs><style>.cls-1{fill:#eff2f4;}.cls-2{fill:#273f5d;}</style></defs><title>未标题-2</title><g id="Group_5485" data-name="Group 5485"><g id="Group_551" data-name="Group 551"><circle id="Ellipse_2" data-name="Ellipse 2" class="cls-1" cx="20" cy="20" r="20"/></g></g><path class="cls-2" d="M17.54,12.83h5.18a6.09,6.09,0,0,1,1,.09,4.22,4.22,0,0,1,3.55,4c.06,2.36.07,4.73,0,7.09A4.27,4.27,0,0,1,23,28h-2v6.24H17.54Zm3.55,11.57c.68,0,1.34,0,2,0a.67.67,0,0,0,.64-.7c0-2.19,0-4.37,0-6.56a.91.91,0,0,0-.6-.65,15,15,0,0,0-2,0Z"/><path class="cls-2" d="M16.25,13V28H12.72c0-.16,0-.33,0-.5,0-3.7,0-7.4,0-11.1A3.26,3.26,0,0,1,16,13Z"/><path class="cls-2" d="M19.23,11.28a2.76,2.76,0,0,1-2.69-2.81A2.74,2.74,0,1,1,22,8.57,2.75,2.75,0,0,1,19.23,11.28Z"/><path class="cls-2" d="M21.09,24.41v-8a15,15,0,0,1,2,0,.91.91,0,0,1,.6.65c0,2.18,0,4.37,0,6.56a.67.67,0,0,1-.64.7C22.42,24.44,21.77,24.41,21.09,24.41Z"/></svg>