<svg id="图层_1" data-name="图层 1" xmlns="http://www.w3.org/2000/svg" viewBox="0 0 40 40"><defs><style>.cls-1{fill:#eff2f4;}.cls-2{fill:#3c2762;}</style></defs><title>未标题-2</title><g id="Group_5485" data-name="Group 5485"><g id="Group_551" data-name="Group 551"><circle id="Ellipse_2" data-name="Ellipse 2" class="cls-1" cx="20" cy="20" r="20"/></g></g><path class="cls-2" d="M31.85,25.38c-1.6-.73-3.19-1.47-4.79-2.18a2.32,2.32,0,0,1-1.36-2,4.67,4.67,0,0,0-3.49-4l-.12,0-.31.52.29.1a4.11,4.11,0,0,1,3,3.31,1.08,1.08,0,0,1,0,.17,2.8,2.8,0,0,0,2,2.57c1.6.69,3.17,1.44,4.82,2.19l-10.6,6.27s-.06,0-.06-.06q0-2,0-4.1A1.46,1.46,0,0,1,22,26.84L23.38,26a4.84,4.84,0,0,0,1.75-1.82l-.48-.39s0,0,0,0a4.77,4.77,0,0,1-2.11,2,10.7,10.7,0,0,0-1,.63A1.84,1.84,0,0,0,20.63,28c0,1.31,0,2.62,0,3.92,0,.13,0,.26,0,.46L9.83,26l1-.43c1.33-.6,2.65-1.21,4-1.8a2.81,2.81,0,0,1,.79-.21,1.07,1.07,0,0,1,1,.47A12.57,12.57,0,0,0,18,25.57a4.67,4.67,0,0,0,1.26.75c.52.24.56.19.87-.35-.25-.08-.51-.15-.75-.24a4.1,4.1,0,0,1-1.76-1.34l-.47-.64a1.81,1.81,0,0,0-2.3-.69c-.78.3-1.53.67-2.3,1L10,25.2H9.91L20.56,7.62c0,.16,0,.24,0,.32,0,2.44,0,4.89,0,7.33a1.91,1.91,0,0,1-1.11,1.92,10.53,10.53,0,0,0-1.31.75,4.65,4.65,0,0,0-2,3.12c-.1.57-.1.57.51.71,0-.25.06-.5.11-.74a4.14,4.14,0,0,1,2.09-2.85l1-.54a2.34,2.34,0,0,0,1.28-2.23c0-1.5,0-3,0-4.51,0-1.06,0-2.13.07-3.22L31.9,25.34Z"/></svg>