<svg id="图层_1" data-name="图层 1" xmlns="http://www.w3.org/2000/svg" viewBox="0 0 40 40"><defs><style>.cls-1{fill:#eff2f4;}.cls-2{fill:#5a4498;}.cls-3{fill:#6fc4b9;}</style></defs><title>未标题-2</title><g id="Group_5485" data-name="Group 5485"><g id="Group_551" data-name="Group 551"><circle id="Ellipse_2" data-name="Ellipse 2" class="cls-1" cx="20" cy="20" r="20"/></g></g><path class="cls-2" d="M26.5,18.61q0-2.27,0-4.55c0-.63.17-.85.77-1L31,12.11c.84-.21,1.24.1,1.25,1q0,4.52,0,9c0,.74-.15.94-.86,1.12q-1.86.48-3.73.91c-.79.18-1.16-.14-1.16-1Q26.5,20.91,26.5,18.61Z"/><path class="cls-2" d="M17,18.66q0-2.3,0-4.6a.85.85,0,0,1,.78-1l3.72-.95c.85-.21,1.25.09,1.26,1s0,1.62,0,2.43a.42.42,0,0,1-.36.48c-1.25.38-1.56.82-1.57,2.14,0,1.64,0,3.28,0,4.92,0,.34-.08.5-.44.58-.77.16-1.53.39-2.3.56S17,24,17,23.26C17,21.72,17,20.19,17,18.66Z"/><path class="cls-2" d="M7.75,18.6q0-2.27,0-4.54c0-.65.15-.84.77-1l3.77-.94c.76-.19,1.2.14,1.22.92s0,1.66,0,2.48c0,.13-.17.29-.3.38a1.26,1.26,0,0,1-.4.11,1.76,1.76,0,0,0-1.48,1.9c0,1.73,0,3.45,0,5.18a.53.53,0,0,1-.5.64c-.67.14-1.33.33-2,.48S7.75,24,7.75,23.3c0-1.57,0-3.14,0-4.7Z"/><path class="cls-3" d="M12.26,17.65a1,1,0,0,1,.69-.87l3.27-.83v7.67a1.88,1.88,0,0,0,1.85,1.33v1.25a.85.85,0,0,1-.71.79c-.73.21-3.71.92-3.71.92s-1.4.33-1.4-.65Z"/><path class="cls-3" d="M21.63,17.65a1,1,0,0,1,.69-.87l3.27-.83v7.67a1.88,1.88,0,0,0,1.85,1.33v1.25a.85.85,0,0,1-.71.79c-.73.21-3.71.92-3.71.92s-1.4.33-1.4-.65Z"/></svg>