<svg id="图层_1" data-name="图层 1" xmlns="http://www.w3.org/2000/svg" viewBox="0 0 40 40"><defs><style>.cls-1{fill:#eff2f4;}.cls-2{fill:#1b2126;}</style></defs><title>未标题-2</title><g id="Group_5485" data-name="Group 5485"><g id="Group_551" data-name="Group 551"><circle id="Ellipse_2" data-name="Ellipse 2" class="cls-1" cx="20" cy="20" r="20"/></g></g><g id="Group_5510" data-name="Group 5510"><path id="Path_24" data-name="Path 24" class="cls-2" d="M13.75,23.21l2.07-2.07-5.51-7.07a0,0,0,0,1,0,0h0s0,.06-.06.08a2.85,2.85,0,0,0-.23.4v0a11.39,11.39,0,0,0-.68,9.29s0,.06,0,.09.11.28.17.4,0,.06,0,.09a11.63,11.63,0,0,0,3.58,4.6l3.29-2.56A6,6,0,0,1,13.75,23.21Z"/><path id="Path_25" data-name="Path 25" class="cls-2" d="M26.25,16.79l-2.07,2.07,5.51,7.07a0,0,0,0,1,0,0s0-.06.06-.08a2.85,2.85,0,0,0,.23-.4v0a11.39,11.39,0,0,0,.68-9.29s0-.06,0-.09-.11-.28-.17-.4,0-.06,0-.08a11.64,11.64,0,0,0-3.58-4.6l-3.29,2.56A6.18,6.18,0,0,1,26.25,16.79Z"/><path id="Path_26" data-name="Path 26" class="cls-2" d="M16.79,13.75l2.07,2.07,7.07-5.51a0,0,0,0,1,0,0h0l-.09-.06a2.83,2.83,0,0,0-.4-.23h0a11.39,11.39,0,0,0-9.27-.68l-.09,0-.4.17-.08,0a11.64,11.64,0,0,0-4.61,3.58l2.56,3.29A6,6,0,0,1,16.79,13.75Z"/><path id="Path_27" data-name="Path 27" class="cls-2" d="M23.21,26.27,21.13,24.2l-7.07,5.51a0,0,0,0,1,0,0h0l.09.06a2.84,2.84,0,0,0,.4.23h0a11.39,11.39,0,0,0,9.29.68l.09,0,.4-.17.08,0a11.64,11.64,0,0,0,4.6-3.58L26.5,23.6A6.18,6.18,0,0,1,23.21,26.27Z"/></g></svg>