<svg id="图层_1" data-name="图层 1" xmlns="http://www.w3.org/2000/svg" viewBox="0 0 40 40"><defs><style>.cls-1{fill:#eff2f4;}.cls-2{fill:#e72f6b;}</style></defs><title>未标题-2</title><g id="Group_5485" data-name="Group 5485"><g id="Group_551" data-name="Group 551"><circle id="Ellipse_2" data-name="Ellipse 2" class="cls-1" cx="20" cy="20" r="20"/></g></g><path class="cls-2" d="M35.62,23c-.33.53-.62,1.09-1,1.59a7.68,7.68,0,0,1-8.85,2.58A8.91,8.91,0,0,1,22,24.23c-1.22-1.56-2.35-3.2-3.5-4.82a19.76,19.76,0,0,0-3.37-4,5.39,5.39,0,0,0-6.22-.74,5.67,5.67,0,0,0-3.37,5.47,6,6,0,0,0,5.7,5.73,5.64,5.64,0,0,0,4.26-1.7c.77-.74,1.46-1.56,2.22-2.38.29.41.6.85.89,1.3a.34.34,0,0,1,0,.31c-1.4,1.78-2.93,3.44-5.23,4a7.67,7.67,0,1,1-2.78-15,7.46,7.46,0,0,1,6.3,2.27,26.76,26.76,0,0,1,3.62,4.56A28.05,28.05,0,0,0,24.22,24,6.32,6.32,0,0,0,27.3,25.8a5.93,5.93,0,0,0,6.08-2.51.86.86,0,0,1,.86-.44c.42,0,.85,0,1.27,0Z"/><path class="cls-2" d="M22.28,18.24c-.33-.47-.64-.89-.92-1.33a.34.34,0,0,1,0-.31c1.37-1.77,2.89-3.39,5.14-4a7.68,7.68,0,0,1,9.66,7.93c0,.26-.12.35-.38.35H27.34c-.24,0-.35-.08-.34-.33a8.05,8.05,0,0,0,0-1c0-.37.14-.45.47-.45H34c.31,0,.4-.11.33-.44a6.11,6.11,0,0,0-4.88-4.54,5.34,5.34,0,0,0-4.58,1.34c-.8.71-1.48,1.55-2.21,2.33C22.5,18,22.41,18.08,22.28,18.24Z"/></svg>