<svg id="图层_1" data-name="图层 1" xmlns="http://www.w3.org/2000/svg" viewBox="0 0 40 40"><defs><style>.cls-1{fill:#eff2f4;}.cls-2{fill:#45499c;}.cls-3{fill:#74c4a8;}</style></defs><title>未标题-2</title><g id="Group_5485" data-name="Group 5485"><g id="Group_551" data-name="Group 551"><circle id="Ellipse_2" data-name="Ellipse 2" class="cls-1" cx="20" cy="20" r="20"/></g></g><path class="cls-2" d="M26.88,20.42a6.63,6.63,0,0,1-4.2,5.65,6.58,6.58,0,0,1-5,.31,6.4,6.4,0,0,1-3-10.15,7,7,0,0,1,7.12-2.62C24.79,14.17,26.93,16.92,26.88,20.42Zm-2.22-.35a4.53,4.53,0,0,0-4.55-4.54,4.68,4.68,0,0,0-4.58,4.68,4.5,4.5,0,0,0,4.67,4.41A4.55,4.55,0,0,0,24.66,20.07Z"/><path class="cls-3" d="M9.66,20.77c.32-.1.34.1.37.35a9.87,9.87,0,0,0,4.63,7.39,9.47,9.47,0,0,0,3.88,1.42c.3,0,.41.14.36.44a8.81,8.81,0,0,0-.14,1.25c0,.48-.22.54-.64.46a12.23,12.23,0,0,1-6.7-3.36,12.05,12.05,0,0,1-3.55-7.25c-.06-.43.09-.6.52-.62Z"/><path class="cls-2" d="M22,30.2c0-.39.22-.42.44-.48a10,10,0,0,0,7.2-7.17c.1-.38.22-.53.63-.41a12.44,12.44,0,0,0,1.24.25c.27.05.4.16.32.48A12.12,12.12,0,0,1,25,31.13a12.76,12.76,0,0,1-2.2.77c-.32.08-.47,0-.53-.32C22.18,31.1,22.08,30.63,22,30.2Z"/><path class="cls-2" d="M10,17.63l-1.59-.4c-.32-.08-.19-.3-.14-.49A12,12,0,0,1,10.79,12a12.25,12.25,0,0,1,4.83-3.35c.56-.22.6-.18.78.4.11.36.21.72.35,1.07s0,.47-.3.58a9.38,9.38,0,0,0-3.28,2,9.85,9.85,0,0,0-2.78,4.48C10.34,17.4,10.34,17.7,10,17.63Z"/><path class="cls-2" d="M31,19.76c-1,0-1,0-1.12-1a9.78,9.78,0,0,0-3.37-6.28c-.23-.2-.3-.36-.07-.61a13,13,0,0,0,.82-1c.22-.3.41-.3.68-.06a12.16,12.16,0,0,1,3.28,4.55,12,12,0,0,1,.9,3.76c0,.62,0,.63-.59.64Z"/><path class="cls-3" d="M20,8.94c0-1.1,0-1.11,1.1-1a12.46,12.46,0,0,1,3.4.81c.26.1.33.2.2.47-.23.46-.43.94-.62,1.41-.08.21-.17.25-.38.16a9.3,9.3,0,0,0-3.27-.72c-.33,0-.49-.11-.44-.47A5,5,0,0,0,20,8.94Z"/></svg>