<svg id="图层_1" data-name="图层 1" xmlns="http://www.w3.org/2000/svg" viewBox="0 0 40 40"><defs><style>.cls-1{fill:#eff2f4;}</style></defs><title>未标题-2</title><g id="Group_5485" data-name="Group 5485"><g id="Group_551" data-name="Group 551"><circle id="Ellipse_2" data-name="Ellipse 2" class="cls-1" cx="20.05" cy="20" r="20"/></g></g><path d="M30.07,21.15c1.07,7.64.54,8.41-8.4,12.63C19.84,27.28,21.53,24.67,30.07,21.15Z"/><path d="M13.7,9.67c5.8-4.56,6.72-4.57,12.95-.16C22.18,14.11,19.21,14.14,13.7,9.67Z"/><path d="M12.37,22.35c7,3,7.8,4.38,6.48,11.35C12.13,31.1,11.41,29.87,12.37,22.35Z"/><path d="M12.42,12.12C19.5,15.31,19.9,16,19,23.32,12.48,21.31,11.33,19.39,12.42,12.12Z"/><path d="M28.13,12.12c.31,9.38,1.6,6.91-6.42,11.24C19.89,17.18,21.11,15,28.13,12.12Z"/></svg>