<svg id="图层_1" data-name="图层 1" xmlns="http://www.w3.org/2000/svg" viewBox="0 0 40 40"><defs><style>.cls-1{fill:#eff2f4;}.cls-2{fill:#191919;}</style></defs><title>未标题-2</title><g id="Group_5485" data-name="Group 5485"><g id="Group_551" data-name="Group 551"><circle id="Ellipse_2" data-name="Ellipse 2" class="cls-1" cx="20" cy="20" r="20"/></g></g><polygon class="cls-2" points="9.38 17.48 10.23 18.24 13 15.6 13.56 13.43 16.57 12.71 22.43 18.52 24.55 16.24 17.49 9.26 11.23 10.94 9.38 17.48"/><polygon class="cls-2" points="17.61 30.58 18.38 29.74 15.73 26.97 13.56 26.41 12.84 23.4 18.66 17.54 16.37 15.41 9.38 22.48 11.07 28.74 17.61 30.58"/><polygon class="cls-2" points="30.61 22.52 29.77 21.76 27 24.4 26.44 26.57 23.43 27.29 17.57 21.48 15.45 23.76 22.51 30.75 28.77 29.06 30.61 22.52"/><polygon class="cls-2" points="22.39 9.42 21.63 10.26 24.27 13.03 26.44 13.59 27.16 16.6 21.34 22.46 23.63 24.59 30.61 17.52 28.93 11.26 22.39 9.42"/></svg>