<svg id="图层_1" data-name="图层 1" xmlns="http://www.w3.org/2000/svg" viewBox="0 0 40 40"><defs><style>.cls-1{fill:#eff2f4;}</style></defs><title>未标题-2</title><g id="Group_5485" data-name="Group 5485"><g id="Group_551" data-name="Group 551"><circle id="Ellipse_2" data-name="Ellipse 2" class="cls-1" cx="19.92" cy="20" r="20"/></g></g><path d="M27.52,27.93c-.39-.61-.8-1.2-1.17-1.82a42.53,42.53,0,0,1-4.55-10.34c-.59-2-1.13-4-1.7-6a.74.74,0,0,0-.16-.31c-.09.28-.18.55-.26.83-.9,3.13-1.84,6.24-3,9.28a47,47,0,0,1-4.23,8.13l-.11.13a10.9,10.9,0,0,1-3-9.93A10.95,10.95,0,1,1,27.52,27.93Z"/><path d="M19.94,20,23.4,30.43a11.17,11.17,0,0,1-7.23-.15L19.83,20Z"/></svg>