<svg id="图层_1" data-name="图层 1" xmlns="http://www.w3.org/2000/svg" viewBox="0 0 40 40"><defs><style>.cls-1{fill:#eff2f4;}.cls-2{fill:#101d35;}.cls-3{fill:#21375e;}.cls-4{fill:#bb9c59;}.cls-5{fill:#dbc38b;}.cls-6{fill:#ddcda3;}.cls-7{fill:#293651;}</style></defs><title>未标题-2</title><g id="Group_5485" data-name="Group 5485"><g id="Group_551" data-name="Group 551"><circle id="Ellipse_2" data-name="Ellipse 2" class="cls-1" cx="20" cy="20" r="20"/></g></g><path class="cls-2" d="M19.95,8.39c.19-.09.25.09.34.17L31.46,19.73c.16.16.22.25,0,.45-1.28,1.26-2.55,2.54-3.81,3.81-.16.16-.26.25-.47,0q-3.57-3.6-7.16-7.19a.68.68,0,0,1-.08-.45c0-1.61-.05-3.21.06-4.82A19.1,19.1,0,0,0,19.95,8.39Z"/><path class="cls-3" d="M19.95,8.39A19.1,19.1,0,0,1,20,11.58c-.12,1.61,0,3.21-.06,4.82a.68.68,0,0,0,.08.45c-.18,0-.25.17-.36.27Q16.24,20.54,12.83,24c-.21.22-.37.3-.54,0,0-.19,0-.42-.29-.28a.07.07,0,0,1,0,0c0-.05.08-.12,0-.16s-.09,0-.14,0a.07.07,0,0,1,0,0c.13-.32-.1-.29-.29-.29a3.2,3.2,0,0,1-.57-.57c0-.19,0-.42-.29-.29a.07.07,0,0,1,0,0c0-.05.08-.12,0-.16s-.09,0-.14,0a.07.07,0,0,1,0,0c.13-.32-.1-.29-.29-.29a3.2,3.2,0,0,1-.57-.57c0-.19,0-.42-.29-.29a.07.07,0,0,1,0,0c0-.05.08-.12,0-.16s-.09,0-.14,0a.07.07,0,0,1,0,0c.13-.32-.09-.29-.29-.29-.52-.45-.52-.45-.05-.91l11-11C19.76,8.51,19.81,8.39,19.95,8.39Z"/><path class="cls-4" d="M19.92,19.06c.18-.15.26,0,.34.12L26.14,25c.16.16.21.26,0,.45L20,31.58h-.1q0-6.15,0-12.3A1.67,1.67,0,0,0,19.92,19.06Z"/><path class="cls-5" d="M19.92,19.06a1.67,1.67,0,0,1,0,.21q0,6.15,0,12.3c-.78-.64-1.44-1.4-2.17-2.1-.89-.86-1.72-1.76-2.62-2.61a1,1,0,0,1-.14-.2l-.09-.09-.33-.33-.09-.09h0c0-.18-.08-.26-.26-.25l-.07,0-.08-.07a.21.21,0,0,1,0-.07c0-.27-.28-.37-.33-.6l.43-.43a.15.15,0,0,0,.16-.16c1.14-1.15,2.26-2.34,3.44-3.45A18.72,18.72,0,0,1,19.92,19.06Z"/><path class="cls-6" d="M13.75,25.12c0,.24.35.33.33.6C13.86,25.58,13.52,25.51,13.75,25.12Z"/><path class="cls-7" d="M12,23.67c.32-.14.29.09.29.28Z"/><path class="cls-7" d="M11.5,23.17c.19,0,.42,0,.29.29Z"/><path class="cls-7" d="M10.64,22.31c.32-.14.29.09.29.29Z"/><path class="cls-7" d="M10.14,21.81c.19,0,.42,0,.29.29Z"/><path class="cls-7" d="M9.28,21c.32-.14.29.09.29.29Z"/><path class="cls-7" d="M8.79,20.45c.19,0,.42,0,.29.29Z"/><path class="cls-6" d="M14.24,25.89c.18,0,.27.07.26.25A.3.3,0,0,1,14.24,25.89Z"/><path class="cls-7" d="M10.47,22.14s.11,0,.14,0,0,.11,0,.16Z"/><path class="cls-7" d="M11.83,23.5s.11,0,.14,0,0,.11,0,.16Z"/><path class="cls-7" d="M9.11,20.78s.11,0,.14,0,0,.11,0,.16Z"/><path class="cls-6" d="M14.34,24.53a.15.15,0,0,1-.16.16C14.18,24.58,14.23,24.53,14.34,24.53Z"/><path class="cls-6" d="M14.09,25.79l.08.07Z"/><path class="cls-6" d="M14.5,26.14l.09.09Z"/><path class="cls-6" d="M14.92,26.57l.09.09Z"/><path class="cls-5" d="M19.94,31.58H20C20,31.65,20,31.66,19.94,31.58Z"/></svg>