<svg id="图层_1" data-name="图层 1" xmlns="http://www.w3.org/2000/svg" viewBox="0 0 40 40"><defs><style>.cls-1{fill:#eff2f4;}.cls-2{fill:#0c0e0d;}.cls-3{fill:#33aeb0;}</style></defs><title>未标题-2</title><g id="Group_5485" data-name="Group 5485"><g id="Group_551" data-name="Group 551"><circle id="Ellipse_2" data-name="Ellipse 2" class="cls-1" cx="20" cy="20" r="20"/></g></g><circle class="cls-2" cx="5.02" cy="15.35" r="1.2"/><circle class="cls-3" cx="17.09" cy="24.65" r="1.2"/><circle class="cls-3" cx="26.42" cy="15.35" r="1.2"/><rect class="cls-2" x="4.1" y="17.26" width="1.75" height="7.39"/><rect class="cls-2" x="12.23" y="15.35" width="2.76" height="1.72"/><rect class="cls-2" x="12.23" y="22.93" width="2.76" height="1.72"/><path class="cls-2" d="M12.23,22.93a2.93,2.93,0,0,1,0-5.85V15.35a4.65,4.65,0,0,0,0,9.29Z"/><path class="cls-2" d="M29.46,19.48a2.6,2.6,0,0,1,5.19,0h1.53a4.12,4.12,0,0,0-8.25,0Z"/><path class="cls-3" d="M19.67,22.07a2.93,2.93,0,0,1,4.14-4.14L25,16.71a4.65,4.65,0,0,0-6.57,6.57Z"/><path class="cls-3" d="M24.2,18.29a2.93,2.93,0,0,1-4.14,4.14l-1.22,1.22a4.65,4.65,0,0,0,6.57-6.57Z"/><rect class="cls-2" x="27.93" y="19.48" width="1.53" height="5.17"/><rect class="cls-2" x="34.65" y="19.48" width="1.53" height="5.17"/></svg>