<svg id="图层_1" data-name="图层 1" xmlns="http://www.w3.org/2000/svg" viewBox="0 0 40 40"><defs><style>.cls-1{fill:#eff2f4;}.cls-2{fill:#fff;}</style></defs><title>未标题-2</title><g id="Group_5485" data-name="Group 5485"><g id="Group_551" data-name="Group 551"><circle id="Ellipse_2" data-name="Ellipse 2" class="cls-1" cx="20" cy="20" r="20"/></g></g><path d="M31.12,20c0,1.88,0,3.76,0,5.65a.77.77,0,0,1-.45.78q-5.12,2.85-10.23,5.72a.81.81,0,0,1-.9,0q-5.05-2.85-10.12-5.66a.92.92,0,0,1-.55-.92q0-5.62,0-11.23a.87.87,0,0,1,.5-.88q5.07-2.81,10.13-5.65a.86.86,0,0,1,1,0q5.08,2.87,10.18,5.69a.81.81,0,0,1,.48.82C31.11,16.24,31.12,18.14,31.12,20ZM16.2,16.24c1.26-.71,2.4-1.33,3.51-2a.91.91,0,0,1,1,0c1.54.88,3.1,1.74,4.66,2.59.19.1.47.23.62.16.64-.3,1.25-.68,2-1.09l-.26-.15c-2.41-1.33-4.81-2.67-7.23-4a.9.9,0,0,0-.72.08c-2.28,1.25-4.55,2.53-6.83,3.8l-1,.57,4.25,2.39-.67.53c.62.34,1.17.66,1.73,1a.46.46,0,0,0,.4,0c.74-.57,1.19.06,1.8.39l-.9.61c.48.28.93.5,1.34.77a.94.94,0,0,0,1.19,0,.76.76,0,0,1,.61-.14c.82.41,1.61.88,2.5,1.38-1.27.71-2.43,1.33-3.57,2a.82.82,0,0,1-.95,0C17.87,24.05,16,23,14.15,22l-2.47-1.35c0,.73,0,1.3,0,1.87a.68.68,0,0,0,.42.73c2.58,1.41,5.14,2.84,7.72,4.23a1,1,0,0,0,.83,0c2.47-1.35,4.92-2.73,7.37-4.1a4.15,4.15,0,0,0,.4-.3l-4.69-2.63.88-.58c-.67-.37-1.25-.71-1.85-1a.39.39,0,0,0-.33.08c-.76.62-1.3.11-1.93-.33l1-.67c-.46-.26-.87-.45-1.23-.71a1.08,1.08,0,0,0-1.41,0,.86.86,0,0,1-.72.11C17.54,17,16.94,16.65,16.2,16.24Z"/><path class="cls-2" d="M16.2,16.24c.74.41,1.34.78,2,1.07a.86.86,0,0,0,.72-.11,1.08,1.08,0,0,1,1.41,0c.36.26.77.45,1.23.71l-1,.67c.62.44,1.17,1,1.93.33a.39.39,0,0,1,.33-.08c.59.31,1.18.64,1.85,1l-.88.58,4.69,2.63a4.15,4.15,0,0,1-.4.3c-2.45,1.38-4.9,2.76-7.37,4.1a1,1,0,0,1-.83,0c-2.58-1.39-5.15-2.82-7.72-4.23a.68.68,0,0,1-.42-.73c0-.57,0-1.14,0-1.87L14.15,22c1.86,1,3.73,2.06,5.58,3.11a.82.82,0,0,0,.95,0c1.13-.67,2.3-1.3,3.57-2-.9-.5-1.69-1-2.5-1.38a.76.76,0,0,0-.61.14.94.94,0,0,1-1.19,0c-.41-.27-.85-.5-1.34-.77l.9-.61c-.61-.32-1.06-1-1.8-.39a.46.46,0,0,1-.4,0c-.56-.29-1.11-.61-1.73-1l.67-.53L12,16.25l1-.57c2.27-1.27,4.54-2.55,6.83-3.8a.9.9,0,0,1,.72-.08c2.42,1.31,4.82,2.65,7.23,4l.26.15c-.73.41-1.34.78-2,1.09-.15.07-.43-.06-.62-.16-1.56-.85-3.12-1.71-4.66-2.59a.91.91,0,0,0-1,0C18.6,14.91,17.46,15.53,16.2,16.24Z"/></svg>