<svg id="图层_1" data-name="图层 1" xmlns="http://www.w3.org/2000/svg" viewBox="0 0 40 40"><defs><style>.cls-1{fill:#eff2f4;}.cls-2{fill:#54aa91;}.cls-3{fill:#566472;}</style></defs><title>未标题-2</title><g id="Group_5485" data-name="Group 5485"><g id="Group_551" data-name="Group 551"><circle id="Ellipse_2" data-name="Ellipse 2" class="cls-1" cx="20" cy="20" r="20"/></g></g><path class="cls-2" d="M18.38,28.81a.47.47,0,0,1-.47-.47V19.59l-9.51-7V28.34a.47.47,0,1,1-.93,0V11.66a.47.47,0,0,1,.74-.38L18.65,19a.47.47,0,0,1,.19.38v9A.47.47,0,0,1,18.38,28.81Z"/><path class="cls-3" d="M21.62,28.81a.47.47,0,0,0,.47-.47V19.59l9.51-7V28.34a.47.47,0,0,0,.93,0V11.66a.47.47,0,0,0-.74-.38L21.35,19a.47.47,0,0,0-.19.38v9A.47.47,0,0,0,21.62,28.81Z"/></svg>