<svg id="图层_1" data-name="图层 1" xmlns="http://www.w3.org/2000/svg" viewBox="0 0 40 40"><defs><style>.cls-1{fill:#eff2f4;}</style></defs><title>未标题-2</title><g id="Group_5485" data-name="Group 5485"><g id="Group_551" data-name="Group 551"><circle id="Ellipse_2" data-name="Ellipse 2" class="cls-1" cx="20" cy="20" r="20"/></g></g><path d="M6.87,20,10,18.49l6.95-3.42a.91.91,0,0,0,.51-.58c.81-2.42,1.63-4.84,2.46-7.26L20,6.88l.28.55q2.35,4.76,4.7,9.51a.94.94,0,0,0,.48.43c2.38.82,4.76,1.62,7.14,2.43l.52.19-1.76.87-8.23,4.05a1,1,0,0,0-.55.63c-.79,2.39-1.61,4.77-2.41,7.15,0,.12-.09.24-.16.42l-.86-1.73q-2-4.15-4.09-8.3a.86.86,0,0,0-.55-.48L7.4,20.2ZM20.14,9.18,16,21.5l8.24-4.07Zm10.63,11-.19-.1c-1.84-.63-3.68-1.26-5.53-1.87a.69.69,0,0,0-.47.05l-7.88,3.88-.29.18.22.09c1.83.62,3.66,1.25,5.49,1.85a.75.75,0,0,0,.5-.07c1.28-.62,2.55-1.25,3.82-1.88ZM14.92,21.81l1.9-5.61-.08-.06L9.19,19.86Zm4.94,9,1.94-5.73-5.72-1.93Z"/></svg>