<svg id="图层_1" data-name="图层 1" xmlns="http://www.w3.org/2000/svg" viewBox="0 0 40 40"><defs><style>.cls-1{fill:#eff2f4;}.cls-2{fill:#c02144;}</style></defs><title>未标题-2</title><g id="Group_5485" data-name="Group 5485"><g id="Group_551" data-name="Group 551"><circle id="Ellipse_2" data-name="Ellipse 2" class="cls-1" cx="20" cy="20" r="20"/></g></g><path class="cls-2" d="M16.08,18.68h1.13c4.65,0,9.3,0,14,0,.81,0,1.05.24,1,1-.06,1.61,0,3.22,0,4.84a4.16,4.16,0,0,1-2.58,4A4,4,0,0,1,25,27.48a1.61,1.61,0,0,1-.19-.26c-1.17.56-2.23,1.16-3.35,1.58a16.23,16.23,0,0,1-2.61.59c-.47.09-.7-.14-.69-.61,0,0,0-.05,0-.08-.11-1.7-.08-1.6,1.56-2.11a31.71,31.71,0,0,0,3.83-1.66.73.73,0,0,0,.38-.51c0-1-.07-2-.12-3.11H8.95c-1.13,0-1.13,0-1.13-1.16q0-2.26,0-4.52a4.28,4.28,0,0,1,2.6-4.17,4,4,0,0,1,4.73,1.19l.07.06c1.22-.56,2.39-1.16,3.61-1.62a13.94,13.94,0,0,1,2.24-.47c.58-.12.77.18.75.7,0,.08,0,.16,0,.24,0,1.48,0,1.38-1.43,1.82A32.91,32.91,0,0,0,16.46,15a.83.83,0,0,0-.37.62C16.06,16.61,16.08,17.59,16.08,18.68Zm-5.83,0c1.17,0,2.27,0,3.37,0,.12,0,.34-.21.34-.32A26.26,26.26,0,0,0,13.83,15a1.74,1.74,0,0,0-2-1.25,1.72,1.72,0,0,0-1.6,1.5C10.21,16.37,10.25,17.47,10.25,18.67Zm15.87,2.7c0,1.19-.06,2.35,0,3.49a1.74,1.74,0,0,0,1.73,1.36A1.66,1.66,0,0,0,29.67,25c.11-1.19,0-2.39,0-3.62Z"/></svg>