<svg id="图层_1" data-name="图层 1" xmlns="http://www.w3.org/2000/svg" viewBox="0 0 40 40"><defs><style>.cls-1{fill:#eff2f4;}.cls-2{fill:#405ca9;}</style></defs><title>未标题-2</title><g id="Group_5485" data-name="Group 5485"><g id="Group_551" data-name="Group 551"><circle id="Ellipse_2" data-name="Ellipse 2" class="cls-1" cx="20" cy="20" r="20"/></g></g><path class="cls-2" d="M22.82,19.72c-1.46,0-2.9-.24-4.35-.35a14.82,14.82,0,0,0-4.16.2c-.33.07-.54.08-.49-.37.5-4.42,3.29-8.83,7.78-10.18a7.27,7.27,0,0,1,7.5,1.46,5.06,5.06,0,0,1-1.4,8.39A10.86,10.86,0,0,1,22.82,19.72Z"/><path class="cls-2" d="M15.58,31.41a7.25,7.25,0,0,1-3.89-1,4.76,4.76,0,0,1-2.45-4.5,4.62,4.62,0,0,1,3.14-4.16,13,13,0,0,1,6.4-.56,26.47,26.47,0,0,0,5,.19c.3,0,.59-.08.89-.13.83-.15.86-.15.72.66-.71,4.05-2.7,7.18-6.58,8.88A9,9,0,0,1,15.58,31.41Z"/></svg>